# xmcd CD database file
#
# Track frame offsets:
#	150
#	11284
#	28900
#	39202
#	53725
#	71146
#	90556
#	112202
#	132713
#	151642
#	173703
#	187086
#
# Disc length: 2765 seconds
#
# Revision: 0
# Processed by: cddbd v1.5.2PL0 Copyright (c) Steve Scherf et al.
# Submitted via: CDex 1.70beta2
#
DISCID=9d0acb0c
DTITLE=Eri Esittäjiä - Syvissä Vesissä
DYEAR=2009
DGENRE=Kotimainen
TTITLE0=Myrkytyksen oireet - Jaakko Martikainen 
TTITLE1=Rukous - Tuure Kilpeläinen
TTITLE2=ATK - Samae Koskinen
TTITLE3=Kun sä tuomitset mut - Mikki Kauste
TTITLE4=Väkivalta ja päihdeongelma - Disco
TTITLE5=Kun nainen lyö - Bääbs
TTITLE6=Teit meistä kauniin - Sansa
TTITLE7=Kaikki nuoret tyypit - Scandinavian Music Group
TTITLE8=Vallat ja väet - Markus Perttula
TTITLE9=Ilmestyskirjan peto - Ville Leinonen
TTITLE10=Karvattomat koira - Eleanoora Rosenholm
TTITLE11=Sinä olet tähti -  Laura Sippola
EXTD=YEAR: 2009
EXTT0=
EXTT1=
EXTT2=
EXTT3=
EXTT4=
EXTT5=
EXTT6=
EXTT7=
EXTT8=
EXTT9=
EXTT10=
EXTT11=
PLAYORDER=
